<?xml version="1.0" encoding="UTF-8" standalone="no"?>
<!DOCTYPE svg PUBLIC "-//W3C//DTD SVG 1.1//EN" "http://www.w3.org/Graphics/SVG/1.1/DTD/svg11.dtd">
<svg width="100%" height="100%" viewBox="0 0 100 57" version="1.1" xmlns="http://www.w3.org/2000/svg" xmlns:xlink="http://www.w3.org/1999/xlink" xml:space="preserve" xmlns:serif="http://www.serif.com/" style="fill-rule:evenodd;clip-rule:evenodd;stroke-linejoin:round;stroke-miterlimit:2;">
    <g transform="matrix(0.0745864,0,0,0.0745864,-45.5008,-25.5772)">
        <g transform="matrix(1,0,0,1,-91.9727,-0.00920742)">
            <path d="M1430.17,1006.94C1430.17,1006.94 1429.72,644.07 1429.46,555.054C1429.46,554.363 1429.47,552.788 1429.47,552.788C1429.89,511.765 1444.93,484.644 1464.3,466.713C1482.22,447.357 1509.34,432.306 1550.37,431.888L2004.52,432.587C2004.52,432.587 2004.55,552.402 1895.3,552.503C1726.66,552.659 1619.07,552.768 1550.42,552.843C1550.39,581.284 1550.36,616.409 1550.31,659.796C1892.72,661.006 1893.63,660.427 1893.63,660.427C1893.63,660.427 1893.65,780.243 1805.47,780.344C1686.92,780.48 1605.75,780.579 1550.19,780.652C1550.16,815.989 1550.13,854.885 1550.09,897.719C1549.98,1006.97 1430.17,1006.94 1430.17,1006.94Z" style="fill:url(#_Linear1);"/>
            <path d="M1456.58,458.996C1476.16,437.985 1505.63,421.433 1550.32,420.977L2015.43,421.693L2015.43,432.584C2015.43,432.584 2014.94,563.303 1895.31,563.414L1561.32,563.743L1561.24,648.921C1892.76,650.083 1893.65,649.516 1893.65,649.516L1904.54,660.425C1904.54,660.425 1904.57,692.264 1892.86,724.113C1880.44,757.9 1855.2,791.198 1805.48,791.255L1561.1,791.55L1561,897.729C1560.88,1017.36 1430.17,1017.85 1430.17,1017.85L1419.27,1017.85L1419.26,1006.96C1419.26,1006.96 1418.81,644.098 1418.55,555.086C1418.55,554.373 1418.56,552.747 1418.56,552.676C1419.02,508.057 1435.56,478.59 1456.58,458.996ZM1430.17,1006.94C1430.17,1006.94 1429.72,644.07 1429.46,555.054C1429.46,554.363 1429.47,552.788 1429.47,552.788C1429.89,511.765 1444.93,484.644 1464.3,466.713C1482.22,447.357 1509.34,432.306 1550.37,431.888L2004.52,432.587C2004.52,432.587 2004.55,552.402 1895.3,552.503C1726.66,552.659 1619.07,552.768 1550.42,552.843C1550.39,581.284 1550.36,616.409 1550.31,659.796C1892.72,661.006 1893.63,660.427 1893.63,660.427C1893.63,660.427 1893.65,780.243 1805.47,780.344C1686.92,780.48 1605.75,780.579 1550.19,780.652C1550.16,815.989 1550.13,854.885 1550.09,897.719C1549.98,1006.97 1430.17,1006.94 1430.17,1006.94Z"/>
        </g>
        <path d="M875.158,552.732C648.095,552.96 648.259,553.002 648.259,553.002C648.259,553.002 652.348,431.533 771.435,431.879C863.831,432.148 1223.32,432.587 1223.32,432.587C1223.32,432.587 1223.35,552.402 1114.1,552.503C1070.42,552.544 1030.85,552.581 994.95,552.615L994.944,553.002C995.038,619.694 995.262,723.47 995.731,884.946C996.077,1004.03 874.67,1008.12 874.67,1008.12C874.67,1008.12 874.736,1008.38 875.158,552.732Z" style="fill:url(#_Linear2);"/>
        <path d="M864.237,563.655C648.113,563.872 648.272,563.913 648.272,563.913L637.07,561.078L637.355,552.635C637.355,552.635 641.908,420.592 771.467,420.968C863.859,421.237 1223.34,421.676 1223.34,421.676L1234.23,421.689L1234.23,432.584C1234.23,432.584 1233.74,563.303 1114.11,563.414L1005.87,563.516C1005.97,630.453 1006.2,731.713 1006.64,884.914C1007.02,1014.48 875.037,1019.03 875.037,1019.03L863.759,1008.11C863.759,1008.11 863.824,1008.37 864.237,563.655ZM875.158,552.732C648.095,552.96 648.259,553.002 648.259,553.002C648.259,553.002 652.348,431.533 771.435,431.879C863.831,432.148 1223.32,432.587 1223.32,432.587C1223.32,432.587 1223.35,552.402 1114.1,552.503C1070.42,552.544 1030.85,552.581 994.95,552.615L994.944,553.002C995.038,619.694 995.262,723.47 995.731,884.946C996.077,1004.03 874.67,1008.12 874.67,1008.12C874.67,1008.12 874.736,1008.38 875.158,552.732Z"/>
    </g>
    <defs>
        <linearGradient id="_Linear1" x1="0" y1="0" x2="1" y2="0" gradientUnits="userSpaceOnUse" gradientTransform="matrix(-388.066,-353.105,353.105,-388.066,1842.48,823.867)"><stop offset="0" style="stop-color:rgb(155,12,250);stop-opacity:1"/><stop offset="0.49" style="stop-color:rgb(152,25,249);stop-opacity:1"/><stop offset="1" style="stop-color:rgb(142,64,245);stop-opacity:1"/></linearGradient>
        <linearGradient id="_Linear2" x1="0" y1="0" x2="1" y2="0" gradientUnits="userSpaceOnUse" gradientTransform="matrix(399.72,255.215,-255.215,399.72,669.53,478.708)"><stop offset="0" style="stop-color:rgb(240,158,225);stop-opacity:1"/><stop offset="1" style="stop-color:rgb(142,64,245);stop-opacity:1"/></linearGradient>
    </defs>
</svg>
